<svg xmlns="http://www.w3.org/2000/svg" viewBox="0 0 120 120"><defs><filter id="s" x="-20%" y="-20%" width="140%" height="150%"><feDropShadow dx="0" dy="4" stdDeviation="3" flood-color="#000" flood-opacity=".25"/></filter></defs><g filter="url(#s)"><g fill="#fff" stroke="#fff" stroke-width="10" stroke-linejoin="round" stroke-linecap="round"><path d="M27 56 L29 18 L57 40 Z"/><path d="M93 56 L91 18 L63 40 Z"/><circle cx="60" cy="70" r="38"/></g><g fill="#000"><path d="M27 56 L29 18 L57 40 Z"/><path d="M93 56 L91 18 L63 40 Z"/><circle cx="60" cy="70" r="38"/></g>
<path d="M34 50 L35 30 L50 42 Z" fill="#FF5A47"/><path d="M86 50 L85 30 L70 42 Z" fill="#FF5A47"/>
<ellipse cx="46" cy="68" rx="7" ry="8" fill="#fff"/><ellipse cx="74" cy="68" rx="7" ry="8" fill="#fff"/>
<circle cx="47" cy="69" r="3.5" fill="#000"/><circle cx="75" cy="69" r="3.5" fill="#000"/>
<path d="M56 80 L64 80 L60 85 Z" fill="#FF5A47"/>
<path d="M52 86q8 6 16 0" fill="none" stroke="#fff" stroke-width="2.5" stroke-linecap="round"/>
<g stroke="#fff" stroke-width="2" stroke-linecap="round"><path d="M20 76h14M20 84l14-3M100 76H86M100 84l-14-3"/></g></g></svg>